<svg xmlns="http://www.w3.org/2000/svg" xmlns:xlink="http://www.w3.org/1999/xlink" width="21" height="24" viewBox="0 0 21 24"><defs><path id="plgga" d="M1664.36 351.16c.45.56.64 1.18.56 1.8a2.5 2.5 0 0 1-.96 1.63l-.73.57c-.36.26-.7.51-1 .8l-.01.02a3.8 3.8 0 0 1-3.04.88l-.32-.05a12.31 12.31 0 0 1-4.24-1.83 23.7 23.7 0 0 1-7.1-7.08 21.58 21.58 0 0 1-3.04-6.83 8.79 8.79 0 0 1-.18-3.78c.2-.89.65-1.62 1.37-2.18l1.91-1.5.01-.01c.56-.42 1.19-.6 1.8-.53.6.08 1.16.4 1.58.94a23.2 23.2 0 0 1 1.24 1.57l1.2 1.53c.92 1.18.75 2.53-.43 3.45l-.47.37c-.42.33-.85.67-1.3 1 .22.7.56 1.43 1.09 2.29a17.2 17.2 0 0 0 3.65 4.24l.47.32.36.25 1.77-1.37c.57-.45 1.2-.64 1.8-.57.63.08 1.18.43 1.6.98zm-1.07.82l-2.42-3.08-.01-.01a1.04 1.04 0 0 0-.68-.46c-.31-.03-.6.14-.8.29l-1.92 1.5c-.1.07-.39.3-.8.24a1.11 1.11 0 0 1-.48-.18l-.06-.04c-.13-.11-.3-.22-.46-.33a6.63 6.63 0 0 1-.58-.4 18.36 18.36 0 0 1-3.94-4.58 10.97 10.97 0 0 1-1.3-2.83l-.01-.05c-.06-.3-.08-.72.4-1.1l.03-.02c.48-.33.93-.69 1.4-1.06l.49-.38c.6-.46.65-.95.19-1.54l-1.2-1.53-.42-.54c-.26-.35-.52-.68-.79-1l-.01-.02c-.14-.18-.37-.4-.69-.44-.25-.03-.53.06-.8.26l-1.92 1.5a2.3 2.3 0 0 0-.87 1.39c-.19.9-.14 1.89.17 3.19.5 2.13 1.42 4.16 2.87 6.42a22.37 22.37 0 0 0 6.68 6.66 11 11 0 0 0 3.76 1.65l.23.03c.78.1 1.4-.09 1.98-.57.35-.32.72-.6 1.08-.87.24-.18.47-.35.69-.54.57-.46.64-.98.19-1.56z"/></defs><g><g transform="translate(-1644 -333)"><use fill="#218f35" xlink:href="#plgga"/></g></g></svg>